HIERARCHY
ROOT SpineBase
{
  OFFSET 0.000000 0.000000 0.000000
  CHANNELS 6 Xposition Yposition Zposition Zrotation Xrotation Yrotation
  JOINT SpineMid
  {
    OFFSET 0.000000 29.515823 0.000000
    CHANNELS 3 Zrotation Xrotation Yrotation
    JOINT SpineShoulder
    {
      OFFSET -0.075127 22.014785 -0.655621
      CHANNELS 3 Zrotation Xrotation Yrotation
      JOINT Neck
      {
        OFFSET -0.113702 7.295951 -0.518431
        CHANNELS 3 Zrotation Xrotation Yrotation
        JOINT Head
        {
          OFFSET -1.311887 10.525434 3.895602
          CHANNELS 3 Zrotation Xrotation Yrotation
          End Site
          {
            OFFSET 0 0 0
          }
        }
      }
      JOINT ShoulderLeft
      {
        OFFSET -3.690978 -3.668439 12.304480
        CHANNELS 3 Zrotation Xrotation Yrotation
        JOINT ElbowLeft
        {
          OFFSET -2.140940 -17.405598 -17.392672
          CHANNELS 3 Zrotation Xrotation Yrotation
          JOINT WristLeft
          {
            OFFSET -2.246321 -22.972441 -5.596028
            CHANNELS 3 Zrotation Xrotation Yrotation
            JOINT HandLeft
            {
              OFFSET -2.832836 -5.204448 0.799973
              CHANNELS 3 Zrotation Xrotation Yrotation
              JOINT HandTipLeft
              {
                OFFSET -3.078704 -5.868985 -0.638426
                CHANNELS 3 Zrotation Xrotation Yrotation
                End Site
                {
                  OFFSET 0 0 0
                }
              }
              JOINT ThumbLeft
              {
                OFFSET 3.363767 -0.584989 -1.755679
                CHANNELS 3 Zrotation Xrotation Yrotation
                End Site
                {
                  OFFSET 0 0 0
                }
              }
            }
          }
        }
      }
      JOINT ShoulderRight
      {
        OFFSET -3.063343 -3.825185 -10.424798
        CHANNELS 3 Zrotation Xrotation Yrotation
        JOINT ElbowRight
        {
          OFFSET -3.861648 -23.325721 -2.269710
          CHANNELS 3 Zrotation Xrotation Yrotation
          JOINT WristRight
          {
            OFFSET -6.037735 -22.031506 2.276131
            CHANNELS 3 Zrotation Xrotation Yrotation
            JOINT HandRight
            {
              OFFSET -0.383953 -6.781805 1.294636
              CHANNELS 3 Zrotation Xrotation Yrotation
              JOINT HandTipRight
              {
                OFFSET -1.973074 -6.169912 0.229318
                CHANNELS 3 Zrotation Xrotation Yrotation
                End Site
                {
                  OFFSET 0 0 0
                }
              }
              JOINT ThumbRight
              {
                OFFSET 0.876772 -1.964621 -0.500007
                CHANNELS 3 Zrotation Xrotation Yrotation
                End Site
                {
                  OFFSET 0 0 0
                }
              }
            }
          }
        }
      }
    }
  }
  JOINT HipLeft
  {
    OFFSET -0.647041 -0.308353 -1.600854
    CHANNELS 3 Zrotation Xrotation Yrotation
    JOINT KneeLeft
    {
      OFFSET 11.554399 -28.451930 9.790783
      CHANNELS 3 Zrotation Xrotation Yrotation
      JOINT AnkleLeft
      {
        OFFSET 9.540252 -32.893913 6.579403
        CHANNELS 3 Zrotation Xrotation Yrotation
        JOINT FootLeft
        {
          OFFSET -9.306585 -6.325067 -2.769682
          CHANNELS 3 Zrotation Xrotation Yrotation
          End Site
          {
            OFFSET 0 0 0
          }
        }
      }
    }
  }
  JOINT HipRight
  {
    OFFSET -0.696721 1.744292 -5.085557
    CHANNELS 3 Zrotation Xrotation Yrotation
    JOINT KneeRight
    {
      OFFSET 5.872072 -35.330699 5.773424
      CHANNELS 3 Zrotation Xrotation Yrotation
      JOINT AnkleRight
      {
        OFFSET 6.783453 -27.864169 2.224906
        CHANNELS 3 Zrotation Xrotation Yrotation
        JOINT FootRight
        {
          OFFSET -2.253344 -6.293162 0.343637
          CHANNELS 3 Zrotation Xrotation Yrotation
          End Site
          {
            OFFSET 0 0 0
          }
        }
      }
    }
  }
}
MOTION
Frames: 7
Frame Time: 0.033333
75.025253 72.889377 336.291278 -6.603944 -5.401372 44.655144 -0.612153 -0.093308 -45.206195 -0.413096 -0.180734 -0.380768 7.461073 3.621825 -0.152100 0.000000 0.000000 0.000000 13.434515 10.338918 -7.006120 -1.864929 6.251913 3.887590 14.549776 -13.195785 11.016875 -12.283877 2.362824 -4.225886 0.000000 0.000000 0.000000 0.000000 0.000000 0.000000 -10.865911 12.382893 3.787654 -2.893969 -5.909430 -4.062280 -18.174461 -1.454927 -5.792174 17.550266 2.458967 6.434857 0.000000 0.000000 0.000000 0.000000 0.000000 0.000000 8.065428 21.001274 -43.971233 23.175414 -29.974981 1.077901 13.571019 10.749819 -3.722593 0.000000 0.000000 0.000000 -0.022489 6.822959 -46.453242 6.834990 -2.200599 0.740928 -19.764084 19.304186 -1.329705 0.000000 0.000000 0.000000
76.865801 72.870968 335.570037 -6.143519 -5.956137 40.027868 -0.410041 -0.194867 -40.570652 -0.389830 -0.298122 -0.365311 5.856364 6.988206 0.611314 0.000000 0.000000 0.000000 11.720066 8.376730 -5.642560 -1.639297 7.864438 3.009202 20.778057 -15.923541 16.023225 -13.501545 15.780344 -12.729183 0.000000 0.000000 0.000000 0.000000 0.000000 0.000000 -12.847717 13.012701 4.269223 -1.574327 -3.804819 -4.309558 -18.363352 -0.350851 -5.425187 18.596586 3.237633 6.100726 0.000000 0.000000 0.000000 0.000000 0.000000 0.000000 5.450852 23.410551 -39.229474 29.809316 -29.703181 4.542540 16.022679 8.469626 -5.790947 0.000000 0.000000 0.000000 -2.804876 8.994593 -41.932183 8.692043 -1.911377 1.091135 -19.432689 19.491948 -1.155474 0.000000 0.000000 0.000000
78.881602 73.094635 334.887492 -5.459488 -6.202213 31.846937 -0.151714 -0.143314 -32.335347 -0.401467 -0.253564 -0.326904 2.849800 7.484148 1.753504 0.000000 0.000000 0.000000 10.370037 6.728732 -4.850759 -1.520380 8.953815 2.514509 23.837100 -17.578278 18.890261 -11.899877 21.980211 -17.739634 0.000000 0.000000 0.000000 0.000000 0.000000 0.000000 -15.073840 12.956402 4.622572 -0.614899 -1.407211 -4.665404 -17.430736 1.100570 -4.726090 19.261281 1.253870 6.012792 0.000000 0.000000 0.000000 0.000000 0.000000 0.000000 -0.210085 24.739477 -30.663180 40.230955 -25.601849 10.133709 19.822400 2.127776 -8.341408 0.000000 0.000000 0.000000 -5.998323 10.664751 -33.461388 9.432617 -2.795481 1.104682 -21.094413 22.112027 -0.676185 0.000000 0.000000 0.000000
80.819015 73.281487 334.278072 -5.216504 -6.286207 25.166916 -0.326449 -0.106705 -25.635408 -0.321688 -0.175808 -0.319513 2.490810 8.070605 1.947379 0.000000 0.000000 0.000000 10.035964 6.007016 -4.532611 -1.459208 9.582840 2.291686 26.019820 -18.579841 20.907910 -10.946344 25.620873 -21.096677 0.000000 0.000000 0.000000 0.000000 0.000000 0.000000 -15.187941 13.309957 4.633906 -1.632049 0.890886 -5.057004 -15.874915 2.182940 -3.969605 18.414512 -2.477523 6.019439 0.000000 0.000000 0.000000 0.000000 0.000000 0.000000 -4.866635 23.945347 -23.937031 47.501325 -18.818581 13.584019 11.205316 0.431516 -13.466389 0.000000 0.000000 0.000000 -8.473864 10.929288 -26.588386 9.157247 -3.107251 1.106006 -25.566161 27.093351 0.169153 0.000000 0.000000 0.000000
82.512809 73.323201 334.037838 -5.164669 -6.030508 26.521604 -0.622036 -0.060110 -26.972103 -0.263656 -0.043729 -0.318026 1.758992 6.552140 2.204586 0.000000 0.000000 0.000000 10.185590 6.242138 -4.538422 -1.461491 9.394071 2.294757 27.480201 -17.928146 21.096166 -12.684259 24.586500 -20.362747 0.000000 0.000000 0.000000 0.000000 0.000000 0.000000 -14.951222 13.522570 4.534377 -2.693250 2.735650 -5.404876 -13.666094 3.794734 -2.839788 16.635091 -8.131183 5.849936 0.000000 0.000000 0.000000 0.000000 0.000000 0.000000 -5.221340 24.293580 -25.481735 55.587712 -13.458877 16.962841 9.342277 -5.368174 -14.771377 0.000000 0.000000 0.000000 -8.566778 12.040089 -27.752682 7.577874 -4.769906 0.559661 -26.469626 28.819458 1.456001 0.000000 0.000000 0.000000
84.447741 73.371322 333.855532 -4.914288 -5.343220 27.893080 -0.611786 -0.123806 -28.297638 -0.404837 -0.010522 -0.300567 0.537439 3.961839 2.379970 0.000000 0.000000 0.000000 10.623766 6.765326 -5.261471 -1.553361 9.127828 2.710719 30.246785 -12.980259 18.471718 -20.778359 17.926829 -15.432803 0.000000 0.000000 0.000000 0.000000 0.000000 0.000000 -14.018039 14.491024 4.058112 -4.541084 2.196629 -5.667708 -10.906731 5.660921 -1.565562 14.181775 -11.533782 5.126849 0.000000 0.000000 0.000000 0.000000 0.000000 0.000000 -6.620948 24.933737 -27.055900 60.429848 -8.920783 18.699505 2.194977 -6.634282 -16.790129 0.000000 0.000000 0.000000 -9.788979 13.351417 -28.934637 7.828254 -6.167275 0.300672 -23.576849 26.338897 1.583743 0.000000 0.000000 0.000000
86.686186 73.304830 333.445617 -4.184542 -4.233732 34.942565 -0.531958 -0.142015 -35.251099 -0.495593 -0.002711 -0.258435 -1.590146 0.495793 2.497861 0.000000 0.000000 0.000000 10.646817 6.634617 -6.120289 -1.663719 9.233593 3.198290 26.334310 -9.438684 13.430042 -22.655568 7.978179 -9.330714 0.000000 0.000000 0.000000 0.000000 0.000000 0.000000 -12.919543 15.289653 3.231112 -5.814830 1.828698 -5.816118 -9.872360 5.972498 -1.023409 13.866289 -13.992472 5.030202 0.000000 0.000000 0.000000 0.000000 0.000000 0.000000 -6.042948 26.855445 -34.755007 64.613404 -6.311525 20.234220 -8.306288 -4.176163 -18.258086 0.000000 0.000000 0.000000 -11.906527 15.784801 -36.014092 10.725769 -6.431057 0.687691 -15.159798 19.027422 0.909944 0.000000 0.000000 0.000000
